<svg width="352" height="410" viewBox="0 0 352 410" fill="none" xmlns="http://www.w3.org/2000/svg">
<path d="M247.445 297.621C244.612 297.621 241.833 297.486 239.055 297.217C227.387 308.97 213.302 318.437 197.605 324.946C182.297 331.266 165.461 334.789 147.764 334.789H41.3047C60.4185 364.643 86.2278 390.086 116.732 409.1H147.764C164.933 409.1 181.63 407.003 197.605 403.103C241.417 392.426 279.644 367.951 307.037 334.789C316.483 323.359 324.623 310.907 331.263 297.621H247.445ZM278.478 409.1L394.877 408.988V334.677L353.905 334.789C334.791 364.643 309.01 390.086 278.478 409.1ZM247.445 14.3351C230.276 14.3351 213.579 16.433 197.605 20.3327C153.793 31.0101 115.565 55.4843 88.1725 88.6459C78.7267 100.076 70.5867 112.529 63.919 125.815C50.9172 151.795 43.555 180.923 43.555 211.718C43.555 242.513 50.9172 271.64 63.919 297.621H147.764C150.598 297.621 153.376 297.486 156.154 297.217C133.957 275.056 120.316 244.879 120.316 211.718C120.316 178.556 133.957 148.38 156.154 126.218C167.823 114.465 181.908 104.998 197.605 98.4895C212.913 92.1692 229.748 88.6459 247.445 88.6459L394.877 88.5338V14.2229L247.445 14.3351Z" fill="#1b1a18"/>
<path d="M147.999 125.812C150.833 125.812 153.611 125.946 156.389 126.215C168.057 114.462 182.143 104.995 197.84 98.4866C213.147 92.1662 229.983 88.643 247.68 88.643H354.14C335.026 58.7895 309.217 33.3468 278.712 14.332H247.68C230.511 14.332 213.814 16.4298 197.84 20.3296C154.028 31.0069 115.8 55.4814 88.4072 88.643C78.9614 100.073 70.8214 112.526 64.1815 125.812H147.999ZM116.967 14.332L-0.00038631 14.5056V88.8166L41.5394 88.643C60.6532 58.7895 86.4347 33.3468 116.967 14.332ZM147.999 409.097C165.168 409.097 181.865 407 197.84 403.1C241.651 392.423 279.879 367.948 307.272 334.786C316.718 323.356 324.858 310.904 331.525 297.618C344.527 271.637 351.889 242.51 351.889 211.715C351.889 180.92 344.527 151.792 331.525 125.812H247.68C244.846 125.812 242.068 125.946 239.29 126.215C261.488 148.377 275.128 178.553 275.128 211.715C275.128 244.876 261.488 275.053 239.29 297.214C227.622 308.967 213.536 318.434 197.84 324.943C182.532 331.263 165.696 334.786 147.999 334.786L-0.00038631 334.787V409.098L147.999 409.097Z" fill="#1b1a18"/>
</svg>
