<svg width="1115" height="411" viewBox="0 0 1115 411" fill="none" xmlns="http://www.w3.org/2000/svg">
<path d="M247.445 297.621C244.612 297.621 241.833 297.486 239.055 297.217C227.387 308.97 213.302 318.437 197.605 324.946C182.297 331.266 165.461 334.789 147.764 334.789H41.3047C60.4185 364.643 86.2278 390.086 116.732 409.1H147.764C164.933 409.1 181.63 407.003 197.605 403.103C241.417 392.426 279.644 367.951 307.037 334.789C316.483 323.359 324.623 310.907 331.263 297.621H247.445ZM278.478 409.1L394.877 408.988V334.677L353.905 334.789C334.791 364.643 309.01 390.086 278.478 409.1ZM247.445 14.3351C230.276 14.3351 213.579 16.433 197.605 20.3327C153.793 31.0101 115.565 55.4843 88.1725 88.6459C78.7267 100.076 70.5867 112.529 63.919 125.815C50.9172 151.795 43.555 180.923 43.555 211.718C43.555 242.513 50.9172 271.64 63.919 297.621H147.764C150.598 297.621 153.376 297.486 156.154 297.217C133.957 275.056 120.316 244.879 120.316 211.718C120.316 178.556 133.957 148.38 156.154 126.218C167.823 114.465 181.908 104.998 197.605 98.4895C212.913 92.1692 229.748 88.6459 247.445 88.6459L394.877 88.5338V14.2229L247.445 14.3351Z" fill="#1b1a18"/>
<path d="M147.999 125.812C150.833 125.812 153.611 125.946 156.389 126.215C168.057 114.462 182.143 104.995 197.84 98.4866C213.147 92.1662 229.983 88.643 247.68 88.643H354.14C335.026 58.7895 309.217 33.3468 278.712 14.332H247.68C230.511 14.332 213.814 16.4298 197.84 20.3296C154.028 31.0069 115.8 55.4814 88.4072 88.643C78.9614 100.073 70.8214 112.526 64.1815 125.812H147.999ZM116.967 14.332L-0.00038631 14.5056V88.8166L41.5394 88.643C60.6532 58.7895 86.4347 33.3468 116.967 14.332ZM147.999 409.097C165.168 409.097 181.865 407 197.84 403.1C241.651 392.423 279.879 367.948 307.272 334.786C316.718 323.356 324.858 310.904 331.525 297.618C344.527 271.637 351.889 242.51 351.889 211.715C351.889 180.92 344.527 151.792 331.525 125.812H247.68C244.846 125.812 242.068 125.946 239.29 126.215C261.488 148.377 275.128 178.553 275.128 211.715C275.128 244.876 261.488 275.053 239.29 297.214C227.622 308.967 213.536 318.434 197.84 324.943C182.532 331.263 165.696 334.786 147.999 334.786L-0.00038631 334.787V409.098L147.999 409.097Z" fill="#1b1a18"/>
<path d="M470.741 191V14.4879H545.885C555.971 14.4879 565.217 17.0095 573.622 22.0528C582.196 26.9278 589.004 33.6521 594.047 42.2256C599.09 50.6309 601.612 60.1289 601.612 70.7196C601.612 80.3017 599.09 89.2114 594.047 97.4486C589.004 105.686 582.28 112.326 573.874 117.369C565.469 122.244 556.139 124.682 545.885 124.682H497.974V191H470.741ZM575.64 191L530.755 111.317L558.745 105.013L608.673 191.252L575.64 191ZM497.974 98.4573H548.406C553.281 98.4573 557.652 97.2805 561.519 94.927C565.385 92.4054 568.411 89.0433 570.596 84.8406C572.782 80.4698 573.874 75.6788 573.874 70.4675C573.874 64.5838 572.446 59.4565 569.588 55.0857C566.898 50.5468 563.032 47.0166 557.988 44.495C553.113 41.9734 547.566 40.7126 541.346 40.7126H497.974V98.4573ZM696.369 193.522C682.752 193.522 670.649 190.664 660.058 184.948C649.635 179.064 641.398 171.079 635.346 160.993C629.463 150.907 626.521 139.307 626.521 126.195C626.521 115.772 628.202 106.274 631.564 97.7008C634.926 89.1273 639.549 81.7306 645.433 75.5107C651.485 69.1226 658.629 64.2475 666.866 60.8854C675.272 57.3552 684.349 55.59 694.1 55.59C702.673 55.59 710.658 57.2711 718.055 60.6332C725.452 63.8273 731.84 68.2821 737.219 73.9977C742.767 79.7134 746.969 86.5217 749.827 94.4227C752.853 102.156 754.282 110.645 754.114 119.891L753.862 130.986H645.685L639.885 110.309H731.419L727.637 114.595V108.544C727.133 102.996 725.283 98.037 722.089 93.6662C718.895 89.2954 714.861 85.8492 709.986 83.3276C705.111 80.806 699.815 79.5452 694.1 79.5452C685.022 79.5452 677.373 81.3104 671.153 84.8406C664.933 88.2027 660.226 93.2459 657.032 99.9702C653.838 106.526 652.241 114.68 652.241 124.43C652.241 133.676 654.174 141.745 658.041 148.637C661.907 155.361 667.371 160.573 674.431 164.271C681.492 167.969 689.645 169.819 698.891 169.819C705.447 169.819 711.499 168.726 717.046 166.54C722.762 164.355 728.898 160.405 735.454 154.689L748.566 173.097C744.532 177.131 739.573 180.661 733.689 183.687C727.973 186.713 721.837 189.151 715.281 191C708.893 192.681 702.589 193.522 696.369 193.522ZM826.468 193.522C815.373 193.522 805.371 191.588 796.461 187.722C787.551 183.855 780.155 178.14 774.271 170.575L791.922 155.445C796.965 161.329 802.429 165.616 808.312 168.306C814.364 170.827 821.173 172.088 828.737 172.088C831.763 172.088 834.537 171.752 837.059 171.079C839.748 170.239 842.018 169.062 843.867 167.549C845.884 166.036 847.397 164.271 848.406 162.254C849.414 160.068 849.919 157.715 849.919 155.193C849.919 150.822 848.322 147.292 845.128 144.603C843.447 143.426 840.757 142.165 837.059 140.82C833.528 139.307 828.905 137.794 823.19 136.281C813.44 133.76 805.455 130.902 799.235 127.708C793.015 124.514 788.224 120.9 784.862 116.865C782.34 113.671 780.491 110.225 779.314 106.526C778.137 102.66 777.549 98.4573 777.549 93.9184C777.549 88.3708 778.726 83.3276 781.079 78.7888C783.601 74.0818 786.963 70.0472 791.166 66.6851C795.536 63.1548 800.579 60.4651 806.295 58.616C812.179 56.7668 818.399 55.8422 824.955 55.8422C831.175 55.8422 837.311 56.6827 843.363 58.3638C849.583 60.0449 855.298 62.4824 860.51 65.6764C865.721 68.8705 870.092 72.6529 873.622 77.0236L858.744 93.414C855.55 90.22 852.02 87.4463 848.154 85.0928C844.455 82.5712 840.673 80.6379 836.806 79.2931C832.94 77.9482 829.41 77.2758 826.216 77.2758C822.686 77.2758 819.491 77.612 816.634 78.2844C813.776 78.9569 811.338 79.9655 809.321 81.3104C807.472 82.6552 806.043 84.3363 805.034 86.3536C804.026 88.3708 803.521 90.6403 803.521 93.1619C803.689 95.3473 804.194 97.4486 805.034 99.4659C806.043 101.315 807.388 102.912 809.069 104.257C810.918 105.602 813.692 107.031 817.39 108.544C821.089 110.057 825.795 111.486 831.511 112.83C839.916 115.016 846.809 117.453 852.188 120.143C857.736 122.665 862.107 125.606 865.301 128.969C868.663 132.163 871.016 135.861 872.361 140.064C873.706 144.266 874.378 148.973 874.378 154.185C874.378 161.749 872.193 168.558 867.822 174.61C863.62 180.493 857.904 185.116 850.675 188.478C843.447 191.841 835.378 193.522 826.468 193.522ZM919.393 191V24.8265H945.365V191H919.393ZM891.907 83.832V58.616H976.129V83.832H891.907Z" fill="#1b1a18"/>
<path d="M1058.79 192.506C1053.93 192.506 1050.09 191 1047.24 187.988C1044.56 184.976 1043.23 181.211 1043.23 176.693C1043.23 174.518 1043.64 172.008 1044.48 169.163C1046.82 161.8 1050.5 154.521 1055.52 147.326C1060.71 139.963 1064.98 132.684 1068.33 125.489C1069.5 123.146 1070.08 121.055 1070.08 119.214C1070.08 117.373 1069.5 116.035 1068.33 115.198C1067.32 114.194 1066.07 113.692 1064.56 113.692C1062.38 113.692 1059.62 114.612 1056.28 116.453C1053.1 118.126 1049.42 121.389 1045.23 126.242C1042.72 129.254 1039.88 132.935 1036.7 137.286C1033.52 141.637 1030.93 145.569 1028.92 149.083C1025.57 154.772 1022.56 160.545 1019.88 166.402C1017.2 172.091 1014.86 177.362 1012.85 182.215C1011.18 186.064 1009.17 188.574 1006.83 189.745C1004.49 190.749 1002.23 191.167 1000.05 191C997.878 190.833 996.205 190.833 995.033 191C999.719 181.797 1004.32 172.091 1008.84 161.884C1013.36 151.677 1017.2 141.469 1020.38 131.262C1021.89 126.577 1023.15 122.059 1024.15 117.708C1025.15 113.19 1025.57 110.262 1025.4 108.923V108.421C1025.4 107.082 1026.07 106.748 1027.41 107.417C1029.59 108.588 1031.09 110.345 1031.93 112.688C1032.77 114.863 1033.19 117.373 1033.19 120.218C1033.19 123.397 1032.77 126.828 1031.93 130.509C1031.09 134.023 1030.09 137.202 1028.92 140.047C1031.09 137.035 1033.44 134.023 1035.95 131.011C1038.46 127.832 1041.22 124.82 1044.23 121.975C1047.74 118.461 1051.51 115.449 1055.52 112.939C1059.54 110.262 1063.89 108.923 1068.58 108.923C1073.09 108.923 1076.36 109.927 1078.37 111.935C1080.54 113.943 1081.63 116.62 1081.63 119.967C1081.63 123.481 1080.62 127.497 1078.62 132.015C1076.44 137.202 1073.76 142.39 1070.58 147.577C1067.57 152.764 1064.81 157.784 1062.3 162.637C1061.8 163.641 1060.96 165.231 1059.79 167.406C1058.79 169.414 1057.87 171.673 1057.03 174.183C1056.7 175.354 1056.36 176.609 1056.03 177.948C1055.69 179.119 1055.52 180.374 1055.52 181.713C1055.52 183.386 1055.86 184.976 1056.53 186.482C1057.36 187.821 1058.87 188.49 1061.05 188.49C1063.89 188.49 1066.57 187.57 1069.08 185.729C1071.76 183.721 1074.01 181.629 1075.86 179.454C1079.7 175.271 1083.22 170.669 1086.4 165.649C1089.74 160.462 1093.01 155.023 1096.19 149.334C1096.69 148.665 1097.02 148.33 1097.19 148.33C1097.86 148.33 1098.19 149.083 1098.19 150.589C1098.19 151.593 1098.03 152.346 1097.69 152.848C1094.68 158.37 1091.5 163.808 1088.15 169.163C1084.81 174.35 1080.71 179.37 1075.86 184.223C1073.68 186.398 1071.17 188.323 1068.33 189.996C1065.48 191.669 1062.3 192.506 1058.79 192.506Z" fill="#1b1a18"/>
<path d="M470.741 408.1V231.588H545.885C555.971 231.588 565.217 234.11 573.622 239.153C582.196 244.028 589.004 250.753 594.047 259.326C599.09 267.731 601.612 277.229 601.612 287.82C601.612 297.402 599.09 306.312 594.047 314.549C589.004 322.786 582.28 329.427 573.874 334.47C565.469 339.345 556.139 341.782 545.885 341.782H497.974V408.1H470.741ZM575.64 408.1L530.755 328.418L558.745 322.114L608.673 408.353L575.64 408.1ZM497.974 315.558H548.406C553.281 315.558 557.652 314.381 561.519 312.027C565.385 309.506 568.411 306.144 570.596 301.941C572.782 297.57 573.874 292.779 573.874 287.568C573.874 281.684 572.446 276.557 569.588 272.186C566.898 267.647 563.032 264.117 557.988 261.595C553.113 259.074 547.566 257.813 541.346 257.813H497.974V315.558ZM696.369 410.622C682.752 410.622 670.649 407.764 660.058 402.049C649.635 396.165 641.398 388.18 635.346 378.093C629.463 368.007 626.521 356.408 626.521 343.295C626.521 332.873 628.202 323.375 631.564 314.801C634.926 306.228 639.549 298.831 645.433 292.611C651.485 286.223 658.629 281.348 666.866 277.986C675.272 274.456 684.349 272.691 694.1 272.691C702.673 272.691 710.658 274.372 718.055 277.734C725.452 280.928 731.84 285.383 737.219 291.098C742.767 296.814 746.969 303.622 749.827 311.523C752.853 319.256 754.282 327.745 754.114 336.991L753.862 348.086H645.685L639.885 327.409H731.419L727.637 331.696V325.644C727.133 320.097 725.283 315.137 722.089 310.767C718.895 306.396 714.861 302.95 709.986 300.428C705.111 297.907 699.815 296.646 694.1 296.646C685.022 296.646 677.373 298.411 671.153 301.941C664.933 305.303 660.226 310.346 657.032 317.071C653.838 323.627 652.241 331.78 652.241 341.53C652.241 350.776 654.174 358.845 658.041 365.738C661.907 372.462 667.371 377.673 674.431 381.371C681.492 385.07 689.645 386.919 698.891 386.919C705.447 386.919 711.499 385.826 717.046 383.641C722.762 381.456 728.898 377.505 735.454 371.789L748.566 390.197C744.532 394.232 739.573 397.762 733.689 400.788C727.973 403.814 721.837 406.251 715.281 408.1C708.893 409.782 702.589 410.622 696.369 410.622ZM823.249 408.1L767.269 275.716H795.259L835.605 374.815L830.814 377.085L873.933 275.716H900.662L841.909 408.1H823.249ZM982.512 410.622C968.895 410.622 956.791 407.764 946.201 402.049C935.778 396.165 927.541 388.18 921.489 378.093C915.605 368.007 912.663 356.408 912.663 343.295C912.663 332.873 914.344 323.375 917.707 314.801C921.069 306.228 925.692 298.831 931.575 292.611C937.627 286.223 944.772 281.348 953.009 277.986C961.414 274.456 970.492 272.691 980.242 272.691C988.816 272.691 996.801 274.372 1004.2 277.734C1011.59 280.928 1017.98 285.383 1023.36 291.098C1028.91 296.814 1033.11 303.622 1035.97 311.523C1039 319.256 1040.42 327.745 1040.26 336.991L1040 348.086H931.827L926.028 327.409H1017.56L1013.78 331.696V325.644C1013.28 320.097 1011.43 315.137 1008.23 310.767C1005.04 306.396 1001 302.95 996.128 300.428C991.253 297.907 985.958 296.646 980.242 296.646C971.164 296.646 963.516 298.411 957.296 301.941C951.076 305.303 946.369 310.346 943.175 317.071C939.981 323.627 938.384 331.78 938.384 341.53C938.384 350.776 940.317 358.845 944.183 365.738C948.05 372.462 953.513 377.673 960.574 381.371C967.634 385.07 975.787 386.919 985.033 386.919C991.589 386.919 997.641 385.826 1003.19 383.641C1008.9 381.456 1015.04 377.505 1021.6 371.789L1034.71 390.197C1030.67 394.232 1025.72 397.762 1019.83 400.788C1014.12 403.814 1007.98 406.251 1001.42 408.1C995.036 409.782 988.732 410.622 982.512 410.622ZM1068.99 408.1V221.502H1094.96V408.1H1068.99Z" fill="#1b1a18"/>
</svg>
